<svg width="310" height="42" viewBox="0 0 310 42" fill="none" xmlns="http://www.w3.org/2000/svg">
<path opacity="0.08" d="M2.08 41.52L6.2 37.2H16.08L19.96 41.52H2.08ZM0.88 21.88L5.2 26.04V35.84L0.88 39.76V21.88ZM21.24 39.76L16.92 35.64V25.8L21.24 21.88V39.76ZM5.52 23.32C4.58667 22.5733 3.64 21.84 2.68 21.12L5.52 19H16.44L19.24 21.12L16.44 23.32H5.52ZM2.04 0.879999H19.92L15.96 5.2H6.16L2.04 0.879999ZM0.76 20.48V2.6L5.08 6.48V16.4L0.76 20.48ZM21.12 2.6V20.48L16.8 16.6V6.72L21.12 2.6ZM34.0722 41.52L38.1922 37.2H48.0722L51.9522 41.52H34.0722ZM32.8722 21.88L37.1922 26.04V35.84L32.8722 39.76V21.88ZM53.2322 39.76L48.9122 35.64V25.8L53.2322 21.88V39.76ZM37.5122 23.32C36.5789 22.5733 35.6322 21.84 34.6722 21.12L37.5122 19H48.4322L51.2322 21.12L48.4322 23.32H37.5122ZM34.0322 0.879999H51.9122L47.9522 5.2H38.1522L34.0322 0.879999ZM32.7522 20.48V2.6L37.0722 6.48V16.4L32.7522 20.48ZM53.1122 2.6V20.48L48.7922 16.6V6.72L53.1122 2.6ZM66.0644 41.52L70.1844 37.2H80.0644L83.9444 41.52H66.0644ZM64.8644 21.88L69.1844 26.04V35.84L64.8644 39.76V21.88ZM85.2244 39.76L80.9044 35.64V25.8L85.2244 21.88V39.76ZM69.5044 23.32C68.571 22.5733 67.6244 21.84 66.6644 21.12L69.5044 19H80.4244L83.2244 21.12L80.4244 23.32H69.5044ZM66.0244 0.879999H83.9044L79.9444 5.2H70.1444L66.0244 0.879999ZM64.7444 20.48V2.6L69.0644 6.48V16.4L64.7444 20.48ZM85.1044 2.6V20.48L80.7844 16.6V6.72L85.1044 2.6ZM98.0566 41.52L102.177 37.2H112.057L115.937 41.52H98.0566ZM96.8566 21.88L101.177 26.04V35.84L96.8566 39.76V21.88ZM117.217 39.76L112.897 35.64V25.8L117.217 21.88V39.76ZM101.497 23.32C100.563 22.5733 99.6166 21.84 98.6566 21.12L101.497 19H112.417L115.217 21.12L112.417 23.32H101.497ZM98.0166 0.879999H115.897L111.937 5.2H102.137L98.0166 0.879999ZM96.7366 20.48V2.6L101.057 6.48V16.4L96.7366 20.48ZM117.097 2.6V20.48L112.777 16.6V6.72L117.097 2.6ZM130.049 41.52L134.169 37.2H144.049L147.929 41.52H130.049ZM128.849 21.88L133.169 26.04V35.84L128.849 39.76V21.88ZM149.209 39.76L144.889 35.64V25.8L149.209 21.88V39.76ZM133.489 23.32C132.555 22.5733 131.609 21.84 130.649 21.12L133.489 19H144.409L147.209 21.12L144.409 23.32H133.489ZM130.009 0.879999H147.889L143.929 5.2H134.129L130.009 0.879999ZM128.729 20.48V2.6L133.049 6.48V16.4L128.729 20.48ZM149.089 2.6V20.48L144.769 16.6V6.72L149.089 2.6ZM162.041 41.52L166.161 37.2H176.041L179.921 41.52H162.041ZM160.841 21.88L165.161 26.04V35.84L160.841 39.76V21.88ZM181.201 39.76L176.881 35.64V25.8L181.201 21.88V39.76ZM165.481 23.32C164.548 22.5733 163.601 21.84 162.641 21.12L165.481 19H176.401L179.201 21.12L176.401 23.32H165.481ZM162.001 0.879999H179.881L175.921 5.2H166.121L162.001 0.879999ZM160.721 20.48V2.6L165.041 6.48V16.4L160.721 20.48ZM181.081 2.6V20.48L176.761 16.6V6.72L181.081 2.6ZM194.033 41.52L198.153 37.2H208.033L211.913 41.52H194.033ZM192.833 21.88L197.153 26.04V35.84L192.833 39.76V21.88ZM213.193 39.76L208.873 35.64V25.8L213.193 21.88V39.76ZM197.473 23.32C196.54 22.5733 195.593 21.84 194.633 21.12L197.473 19H208.393L211.193 21.12L208.393 23.32H197.473ZM193.993 0.879999H211.873L207.913 5.2H198.113L193.993 0.879999ZM192.713 20.48V2.6L197.033 6.48V16.4L192.713 20.48ZM213.073 2.6V20.48L208.753 16.6V6.72L213.073 2.6ZM226.025 41.52L230.145 37.2H240.025L243.905 41.52H226.025ZM224.825 21.88L229.145 26.04V35.84L224.825 39.76V21.88ZM245.185 39.76L240.865 35.64V25.8L245.185 21.88V39.76ZM229.465 23.32C228.532 22.5733 227.585 21.84 226.625 21.12L229.465 19H240.385L243.185 21.12L240.385 23.32H229.465ZM225.985 0.879999H243.865L239.905 5.2H230.105L225.985 0.879999ZM224.705 20.48V2.6L229.025 6.48V16.4L224.705 20.48ZM245.065 2.6V20.48L240.745 16.6V6.72L245.065 2.6ZM258.018 41.52L262.138 37.2H272.018L275.898 41.52H258.018ZM256.817 21.88L261.138 26.04V35.84L256.817 39.76V21.88ZM277.178 39.76L272.858 35.64V25.8L277.178 21.88V39.76ZM261.458 23.32C260.524 22.5733 259.578 21.84 258.618 21.12L261.458 19H272.378L275.178 21.12L272.378 23.32H261.458ZM257.978 0.879999H275.858L271.898 5.2H262.098L257.978 0.879999ZM256.698 20.48V2.6L261.018 6.48V16.4L256.698 20.48ZM277.058 2.6V20.48L272.738 16.6V6.72L277.058 2.6ZM290.01 41.52L294.13 37.2H304.01L307.89 41.52H290.01ZM288.81 21.88L293.13 26.04V35.84L288.81 39.76V21.88ZM309.17 39.76L304.85 35.64V25.8L309.17 21.88V39.76ZM293.45 23.32C292.516 22.5733 291.57 21.84 290.61 21.12L293.45 19H304.37L307.17 21.12L304.37 23.32H293.45ZM289.97 0.879999H307.85L303.89 5.2H294.09L289.97 0.879999ZM288.69 20.48V2.6L293.01 6.48V16.4L288.69 20.48ZM309.05 2.6V20.48L304.73 16.6V6.72L309.05 2.6Z" fill="#373A37"/>
</svg>
